<?xml version="1.0" encoding="utf-8"?>
<!-- Generator: Adobe Illustrator 23.0.2, SVG Export Plug-In . SVG Version: 6.00 Build 0)  -->
<svg version="1.1" id="Layer_1" xmlns="http://www.w3.org/2000/svg" xmlns:xlink="http://www.w3.org/1999/xlink" x="0px" y="0px"
	 viewBox="0 0 400 400" style="enable-background:new 0 0 400 400;" xml:space="preserve">
<style type="text/css">
	.st0{fill:none;stroke:#000000;stroke-width:4;stroke-miterlimit:10;}
</style>
<g>
	<path class="st0" d="M232.2,338.3c0.5,0,0.8,0.1,1.1,0.1c7.6,0,14.9-1.5,21.9-4.4c13-5.3,22.7-14.1,27.8-27.4
		c4.2-11.2,5.6-22.9,5.6-34.8c0-13-0.3-26.1-0.3-39.2c-0.1-8.2,3.5-14.8,10.5-18.9c3.5-2.1,7.8-3.1,11.8-4.4
		c1.7-0.5,2.9-1.3,2.9-3.2c0-1.8-1.2-2.8-2.9-3.2c-1.3-0.3-2.6-0.5-3.9-0.8c-10.9-2.4-18.4-11.8-18.3-22.9
		c0.1-12.2,0.4-24.3,0.1-36.5c-0.2-8.1-0.9-16.2-2-24.3c-1-7.5-3.3-14.6-7.5-21c-8.4-12.7-20.5-19.8-35.1-22.7
		c-3.8-0.8-7.7-0.9-11.6-1.3"/>
	<path class="st0" d="M194.9,73.7c-8.2,0-15.8,1.3-23,4.5c-13.2,5.5-22.9,14.5-27.9,28c-3.9,10.3-5.3,21-5.4,31.9
		c-0.1,13.3-0.2,26.7,0.3,40c0.4,10.3-5.6,19.7-15.6,23.1c-2.1,0.7-4.3,1.2-6.5,1.7c-1.8,0.5-3.1,1.4-3.1,3.4c0,1.8,1.3,2.7,3,3.1
		c1.3,0.2,2.5,0.5,3.7,0.8c11.5,2.8,19,12.2,18.7,23.6c-0.4,12-0.5,24.1-0.3,36.2c0.1,7.7,0.8,15.5,1.9,23.1
		c1.4,10.1,4.9,19.4,11.7,27.2c8.4,9.7,19.3,15.1,31.8,17.3c3.6,0.6,7.2,0.8,10.9,1.2"/>
</g>
</svg>
